{
  "accessors": [
    {
      "bufferView": 2,
      "componentType": 5126,
      "count": 2585,
      "max": [
        0.014000000432133675,
        0.0490030013024807,
        0.021170999854803085
      ],
      "min": [
        -0.013515000231564045,
        -0.0490030013024807,
        -0.0011709999525919557
      ],
      "type": "VEC3"
    },
    {
      "bufferView": 2,
      "byteOffset": 31020,
      "componentType": 5126,
      "count": 2585,
      "max": [
        1.0,
        1.0,
        1.0
      ],
      "min": [
        -1.0,
        -1.0,
        -1.0
      ],
      "type": "VEC3"
    },
    {
      "bufferView": 3,
      "componentType": 5126,
      "count": 2585,
      "max": [
        1.0,
        1.0,
        1.0,
        1.0
      ],
      "min": [
        -1.0,
        -1.0,
        -1.0,
        -1.0
      ],
      "type": "VEC4"
    },
    {
      "bufferView": 1,
      "componentType": 5126,
      "count": 2585,
      "max": [
        0.8943740129470825,
        0.8922690153121948
      ],
      "min": [
        0.0,
        0.0
      ],
      "type": "VEC2"
    },
    {
      "bufferView": 0,
      "componentType": 5125,
      "count": 10416,
      "type": "SCALAR"
    },
    {
      "bufferView": 2,
      "byteOffset": 62040,
      "componentType": 5126,
      "count": 1060,
      "max": [
        0.014251000247895718,
        0.0504550002515316,
        0.014506000094115734
      ],
      "min": [
        -0.014251000247895718,
        -0.0504550002515316,
        0.005493999924510717
      ],
      "type": "VEC3"
    },
    {
      "bufferView": 2,
      "byteOffset": 74760,
      "componentType": 5126,
      "count": 1060,
      "max": [
        1.0,
        1.0,
        1.0
      ],
      "min": [
        -1.0,
        -1.0,
        -1.0
      ],
      "type": "VEC3"
    },
    {
      "bufferView": 3,
      "byteOffset": 41360,
      "componentType": 5126,
      "count": 1060,
      "max": [
        1.0,
        0.2632022500038147,
        0.9854070544242859,
        1.0
      ],
      "min": [
        -1.0,
        -0.263620525598526,
        -1.0,
        1.0
      ],
      "type": "VEC4"
    },
    {
      "bufferView": 1,
      "byteOffset": 20680,
      "componentType": 5126,
      "count": 1060,
      "max": [
        0.8976150155067444,
        0.8848199844360352
      ],
      "min": [
        0.0,
        0.0
      ],
      "type": "VEC2"
    },
    {
      "bufferView": 0,
      "byteOffset": 41664,
      "componentType": 5125,
      "count": 3048,
      "type": "SCALAR"
    },
    {
      "bufferView": 2,
      "byteOffset": 87480,
      "componentType": 5126,
      "count": 402,
      "max": [
        0.014000000432133675,
        0.05000000074505806,
        0.012400000356137753
      ],
      "min": [
        -0.014000000432133675,
        -0.05000000074505806,
        0.007600000128149986
      ],
      "type": "VEC3"
    },
    {
      "bufferView": 2,
      "byteOffset": 92304,
      "componentType": 5126,
      "count": 402,
      "max": [
        1.0,
        1.0,
        9.999999974752427e-07
      ],
      "min": [
        -1.0,
        -1.0,
        -9.999999974752427e-07
      ],
      "type": "VEC3"
    },
    {
      "bufferView": 3,
      "byteOffset": 58320,
      "componentType": 5126,
      "count": 402,
      "max": [
        0.00016869277169462293,
        1.0,
        1.0,
        1.0
      ],
      "min": [
        -0.00016860368486959487,
        -0.00023027940187603235,
        -1.0,
        1.0
      ],
      "type": "VEC4"
    },
    {
      "bufferView": 1,
      "byteOffset": 29160,
      "componentType": 5126,
      "count": 402,
      "max": [
        0.881193995475769,
        1.0
      ],
      "min": [
        0.016366999596357346,
        0.00076299998909235
      ],
      "type": "VEC2"
    },
    {
      "bufferView": 0,
      "byteOffset": 53856,
      "componentType": 5125,
      "count": 1080,
      "type": "SCALAR"
    }
  ],
  "asset": {
    "extras": {
      "author": "Scar56 (https://sketchfab.com/Scar56)",
      "license": "CC-BY-4.0 (http://creativecommons.org/licenses/by/4.0/)",
      "source": "https://sketchfab.com/3d-models/harmonica-blues-harp-af5ac47932f34104a6779e77517c0573",
      "title": "Harmonica Blues Harp"
    },
    "generator": "Sketchfab-12.67.0",
    "version": "2.0"
  },
  "bufferViews": [
    {
      "buffer": 0,
      "byteLength": 58176,
      "name": "floatBufferViews",
      "target": 34963
    },
    {
      "buffer": 0,
      "byteLength": 32376,
      "byteOffset": 58176,
      "byteStride": 8,
      "name": "floatBufferViews",
      "target": 34962
    },
    {
      "buffer": 0,
      "byteLength": 97128,
      "byteOffset": 90552,
      "byteStride": 12,
      "name": "floatBufferViews",
      "target": 34962
    },
    {
      "buffer": 0,
      "byteLength": 64752,
      "byteOffset": 187680,
      "byteStride": 16,
      "name": "floatBufferViews",
      "target": 34962
    }
  ],
  "buffers": [
    {
      "byteLength": 252432,
      "uri": "scene.bin"
    }
  ],
  "images": [
    {
      "uri": "textures/M_Metal_1_baseColor.jpeg"
    },
    {
      "uri": "textures/M_Wood_1_baseColor.jpeg"
    },
    {
      "uri": "textures/M_Metal_1_normal.png"
    },
    {
      "uri": "textures/M_Metal_2_baseColor.jpeg"
    },
    {
      "uri": "textures/M_Wood_1_baseColor.jpeg"
    },
    {
      "uri": "textures/M_Metal_2_normal.png"
    },
    {
      "uri": "textures/M_Wood_1_baseColor.jpeg"
    },
    {
      "uri": "textures/M_Wood_1_baseColor.jpeg"
    },
    {
      "uri": "textures/M_Wood_1_normal.png"
    }
  ],
  "materials": [
    {
      "doubleSided": true,
      "name": "M_Metal_1",
      "normalTexture": {
        "index": 2
      },
      "occlusionTexture": {
        "index": 1
      },
      "pbrMetallicRoughness": {
        "baseColorTexture": {
          "index": 0
        }
      }
    },
    {
      "doubleSided": true,
      "name": "M_Metal_2",
      "normalTexture": {
        "index": 5
      },
      "occlusionTexture": {
        "index": 4
      },
      "pbrMetallicRoughness": {
        "baseColorTexture": {
          "index": 3
        }
      }
    },
    {
      "doubleSided": true,
      "name": "M_Wood_1",
      "normalTexture": {
        "index": 8
      },
      "occlusionTexture": {
        "index": 7
      },
      "pbrMetallicRoughness": {
        "baseColorTexture": {
          "index": 6
        }
      }
    }
  ],
  "meshes": [
    {
      "name": "defaultMaterial",
      "primitives": [
        {
          "attributes": {
            "NORMAL": 1,
            "POSITION": 0,
            "TANGENT": 2,
            "TEXCOORD_0": 3
          },
          "indices": 4,
          "material": 0,
          "mode": 4
        }
      ]
    },
    {
      "name": "defaultMaterial",
      "primitives": [
        {
          "attributes": {
            "NORMAL": 6,
            "POSITION": 5,
            "TANGENT": 7,
            "TEXCOORD_0": 8
          },
          "indices": 9,
          "material": 1,
          "mode": 4
        }
      ]
    },
    {
      "name": "defaultMaterial",
      "primitives": [
        {
          "attributes": {
            "NORMAL": 11,
            "POSITION": 10,
            "TANGENT": 12,
            "TEXCOORD_0": 13
          },
          "indices": 14,
          "material": 2,
          "mode": 4
        }
      ]
    }
  ],
  "nodes": [
    {
      "children": [
        1
      ],
      "matrix": [
        7.771561172376096e-16,
        -3.828568672208042e-16,
        1.0,
        0.0,
        -1.0,
        -1.6081226229577306e-16,
        6.661338147750939e-16,
        0.0,
        1.6081226229577292e-16,
        -1.0,
        -3.828568672208042e-16,
        0.0,
        0.0004801929462701082,
        2.000016689300537,
        -0.00048019294626966413,
        1.0
      ],
      "name": "Sketchfab_model"
    },
    {
      "children": [
        2
      ],
      "matrix": [
        1.0,
        0.0,
        0.0,
        0.0,
        0.0,
        -4.371139006309477e-08,
        0.999999999999999,
        0.0,
        0.0,
        -0.999999999999999,
        -4.371139006309477e-08,
        0.0,
        0.0,
        0.0,
        0.0,
        1.0
      ],
      "name": "Collada visual scene group"
    },
    {
      "children": [
        3,
        4,
        5
      ],
      "matrix": [
        100.0,
        0.0,
        1.6e-05,
        0.0,
        1.6e-05,
        0.0,
        -100.0,
        0.0,
        0.0,
        100.0,
        0.0,
        0.0,
        0.0,
        0.0,
        0.0,
        1.0
      ],
      "name": "Armonica_LP"
    },
    {
      "mesh": 0,
      "name": "defaultMaterial"
    },
    {
      "mesh": 1,
      "name": "defaultMaterial"
    },
    {
      "mesh": 2,
      "name": "defaultMaterial"
    }
  ],
  "samplers": [
    {
      "magFilter": 9729,
      "minFilter": 9987,
      "wrapS": 10497,
      "wrapT": 10497
    }
  ],
  "scene": 0,
  "scenes": [
    {
      "name": "Sketchfab_Scene",
      "nodes": [
        0
      ]
    }
  ],
  "textures": [
    {
      "sampler": 0,
      "source": 0
    },
    {
      "sampler": 0,
      "source": 1
    },
    {
      "sampler": 0,
      "source": 2
    },
    {
      "sampler": 0,
      "source": 3
    },
    {
      "sampler": 0,
      "source": 4
    },
    {
      "sampler": 0,
      "source": 5
    },
    {
      "sampler": 0,
      "source": 6
    },
    {
      "sampler": 0,
      "source": 7
    },
    {
      "sampler": 0,
      "source": 8
    }
  ]
}
